<svg id="visual" viewBox="0 0 900 600" width="900" height="600" xmlns="http://www.w3.org/2000/svg" xmlns:xlink="http://www.w3.org/1999/xlink" version="1.1"><rect x="0" y="0" width="900" height="600" fill="#ecf05b"></rect><defs><linearGradient id="grad1_0" x1="33.3%" y1="0%" x2="100%" y2="100%"><stop offset="20%" stop-color="#ecf05b" stop-opacity="1"></stop><stop offset="80%" stop-color="#ecf05b" stop-opacity="1"></stop></linearGradient></defs><defs><linearGradient id="grad2_0" x1="0%" y1="0%" x2="66.7%" y2="100%"><stop offset="20%" stop-color="#ecf05b" stop-opacity="1"></stop><stop offset="80%" stop-color="#ecf05b" stop-opacity="1"></stop></linearGradient></defs><g transform="translate(900, 0)"><path d="M0 540.8C-51.4 485.2 -102.8 429.5 -169.9 410.2C-237 390.9 -319.8 408 -379.7 379.7C-439.6 351.4 -476.6 277.8 -499.7 207C-522.7 136.1 -531.8 68.1 -540.8 0L0 0Z" fill="#51e429"></path></g><g transform="translate(0, 600)"><path d="M0 -540.8C66 -525.4 132 -510 202.1 -487.8C272.1 -465.6 346.2 -436.6 382.4 -382.4C418.6 -328.3 416.9 -248.9 437 -181C457.1 -113.1 499 -56.5 540.8 0L0 0Z" fill="#51e429"></path></g></svg>