<svg id="visual" viewBox="0 0 960 540" width="960" height="540" xmlns="http://www.w3.org/2000/svg" xmlns:xlink="http://www.w3.org/1999/xlink" version="1.1"><rect x="0" y="0" width="960" height="540" fill="#92c210"></rect><defs><linearGradient id="grad1_0" x1="43.8%" y1="0%" x2="100%" y2="100%"><stop offset="14.444444444444446%" stop-color="#92c210" stop-opacity="1"></stop><stop offset="85.55555555555554%" stop-color="#92c210" stop-opacity="1"></stop></linearGradient></defs><defs><linearGradient id="grad2_0" x1="0%" y1="0%" x2="56.3%" y2="100%"><stop offset="14.444444444444446%" stop-color="#92c210" stop-opacity="1"></stop><stop offset="85.55555555555554%" stop-color="#92c210" stop-opacity="1"></stop></linearGradient></defs><g transform="translate(960, 0)"><path d="M0 540C-25.6 525 -51.2 510 -80.9 510.6C-110.6 511.3 -144.3 527.5 -166.9 513.6C-189.4 499.6 -200.8 455.4 -220.6 433C-240.5 410.7 -268.8 410.2 -288.6 397.2C-308.4 384.3 -319.6 358.9 -345.1 345.1C-370.5 331.2 -410.1 328.9 -423.9 308C-437.8 287.1 -425.9 247.8 -433 220.6C-440.2 193.5 -466.4 178.6 -486 157.9C-505.6 137.2 -518.5 110.7 -526.4 83.4C-534.3 56.1 -537.2 28 -540 0L0 0Z" fill="#9efa3c"></path></g><g transform="translate(0, 540)"><path d="M0 -540C26.5 -524 53.1 -508.1 78.5 -495.8C104 -483.6 128.3 -475.1 150.8 -464.1C173.3 -453.1 193.9 -439.7 222.9 -437.5C251.9 -435.3 289.4 -444.5 317.4 -436.9C345.4 -429.3 363.8 -404.9 381.1 -381.1C398.4 -357.3 414.6 -334.1 422.3 -306.8C430 -279.6 429.2 -248.3 435.7 -222C442.2 -195.7 455.8 -174.2 465.1 -151.1C474.3 -128 479.1 -103.2 490.9 -77.7C502.6 -52.3 521.3 -26.1 540 0L0 0Z" fill="#9efa3c"></path></g></svg>